<?xml version="1.0" encoding="utf-8"?>
<!-- Generator: Adobe Illustrator 18.1.1, SVG Export Plug-In . SVG Version: 6.00 Build 0)  -->
<svg version="1.1" id="Layer_1" xmlns="http://www.w3.org/2000/svg" xmlns:xlink="http://www.w3.org/1999/xlink" x="0px" y="0px"
	 width="100px" height="100px" viewBox="-255 347 100 100" enable-background="new -255 347 100 100" xml:space="preserve">
<g>
	<path fill="#512200" stroke="#512200" stroke-miterlimit="10" d="M-183.8,392.2c0.7,2.6,1.1,5.5,1.1,8.4c0,0.3,0,0.7,0,1l3.4,1.3
		l2.8-2.4l2.2,2.6l-4.3,3.5l-4.4-1.8c-0.5,3.9-1.7,7.6-3.4,10.7l0.6-0.8l3.3,1.9l3.2-1.9l1.8,2.9l-4.7,2.9l-5.2-3.1
		c-4.1,6.3-10.4,10.4-17.5,10.4c-7.1,0-13.4-4.1-17.5-10.4l-5.1,3l-4.7-2.9l1.8-2.9l3.2,1.9l3.3-1.9l0.2,0.3
		c-1.6-3-2.7-6.5-3.1-10.2l-4.3,1.7l-4.3-3.5l2.2-2.6l2.8,2.4l3.3-1.3c0-0.4,0-0.7,0-1.1c0-2.9,0.4-5.7,1.1-8.4l-5.6-0.2l-2.4-4.9
		l3-1.5l1.6,3.3l3.8,0.2l0.1,1.1c2.3-6.8,6.8-12.3,12.4-15c0.1-2.1,1.8-3.8,4-3.8h9.3c2.2,0,4,1.8,4,4c0,0.1,0,0.2,0,0.3
		c5.3,2.9,9.5,8.3,11.6,14.9l0.1-1.5l3.8-0.2l1.6-3.3l3,1.5l-2.4,4.9L-183.8,392.2z"/>
	<polygon fill="#512200" stroke="#512200" stroke-miterlimit="10" points="-193.8,367.9 -194.2,369.1 -194.9,369.4 -196.3,369.8 
		-197.5,370.5 -199.2,371.4 -199.2,370.5 -197.3,369.2 -195.9,368.8 -194.7,367.9 -194,366.6 -192.7,366.1 -193,367.4 	"/>
	<polygon fill="#512200" stroke="#512200" stroke-miterlimit="10" points="-212.9,369.8 -214.3,369.4 -215,369.1 -215.4,367.9 
		-216.2,367.4 -216.5,366.1 -215.2,366.6 -214.5,367.9 -213.3,368.8 -211.9,369.2 -210,370.5 -210,371.4 -211.7,370.5 	"/>
</g>
</svg>
